<?xml version="1.0" encoding="UTF-8" standalone="no"?><svg xmlns="http://www.w3.org/2000/svg" xmlns:xlink="http://www.w3.org/1999/xlink" contentScriptType="text/ecmascript" fill="#000000" width="707.8" zoomAndPan="magnify" contentStyleType="text/css" viewBox="0.0 -0.0 707.8 585.0" height="585" preserveAspectRatio="xMidYMid meet" version="1"><g id="change1_1"><path d="m269.04 0c-16.44 0-26.42 2.1342-29.935 6.4048-2.8443 2.6265-6.2718 6.4537-10.074 11.128-51.49-0.93982-103.89-0.60118-157.32 1.1255-13.056 0.37482-66.638-1.7762-71.709 21.969 0.82269 3.6298 5.7301 8.3278 14.723 14.092 8.7795 5.7657 39.089 18.732 42.078 18.732 2.989 0-12.985-14.975-11.636-15.616l89.548-8.2129c3.7469-0.4258 6.2606-0.6408 7.5422-0.6408 1.2802 0 1.9692 0.215 2.0671 0.6408 0.0965 0.4286-1.0844 1.8146-3.5414 4.1641-1.582 1.4952-3.2827 3.4165-5.0989 5.766-40.534 46.332-67.077 79.962-79.631 100.89-12.554 20.926-17.526 37.152-14.913 48.682 1.4028 6.1929 4.9379 11.424 10.603 15.695 5.4515 4.2691 9.565 6.4052 12.34 6.4052 3.6298 0 4.9428-3.6297 3.9383-10.889 6.8461-18.79 20.977-45.48 42.391-80.07 8.3178-13.239 17.508-27.331 27.573-42.277 10.018-15.16 16.877-25.41 20.579-30.747 3.7014-5.3385 6.4602-9.1815 8.2765-11.531 1.7694-2.5618 2.5328-4.377 2.2903-5.4436-0.52365-0.4272-0.8835-1.0679-1.0764-1.9223 14.538-1.1934 28.004-2.2693 40.651-3.2381-8.4074 12.197-17.001 25.447-24.453 37.507-17.859 28.612-32.912 55.943-45.16 81.992-12.033 26.05-17.325 42.277-15.874 48.682 2.2972 4.4842 5.7947 6.7262 10.492 6.7262 2.1346 0 3.626-0.9605 4.4721-2.8815 4.3739-8.9682 21.927-34.054 46.382-57.114 2.1277-1.9224 3.5114-2.8831 4.1522-2.8831s1.0089 0.2136 1.1054 0.6408c0.91915 4.0569-4.581 16.173-7.2461 25.141-2.7134 8.7547-2.1494 18.521-1.2785 22.364 2.5632 11.316 7.4755 16.975 14.735 16.975 4.4841 0 8.5277-0.5335 12.128-1.6015 11.135-3.6296 24.357-15.587 44.955-35.87 0.16534-0.1626 0.33484-0.3294 0.50022-0.492-3.6945 8.231-5.0381 14.59-4.0225 19.068 1.2568 5.5508 3.5075 9.8211 6.7458 12.81 3.2398 2.9889 5.7612 4.6975 7.5665 5.1247 1.6399 0.6408 3.0179 1.068 4.1341 1.2816 6.4051 0 13.91-3.6298 22.514-10.889 8.7685-7.4745 14.806-13.346 18.109-17.616 3.2536-4.4842 5.9297-8.2202 8.0284-11.209 0.66146-0.8544 1.0983-1.2816 1.3105-1.2816 0.42855 0 0.71363 0.3199 0.85834 0.9607-1.0501 17.409-7e-3 23.439-0.0109 23.439 0.62703 8.0132 3.3944 11.209 5.6834 13.771 2.2876 2.5632 7.5212 1.6424 11.611 0.9038 5.0064-0.904 12.976-5.8717 26.756-17.615 5.7202-4.9099 12.076-10.783 19.069-17.616 7.1562-7.0459 13.415-13.345 18.777-18.897 5.5259-5.7643 11.22-11.742 17.078-17.935 0.10474-0.113 0.19033-0.2015 0.29507-0.3132-9.124 18.456-19.779 35.669-35.27 56.738-0.68075 1.7088-0.77551 3.6297-0.29456 5.7656 1.451 6.4051 5.7051 9.6077 12.75 9.6077 2.5604 0 4.5763-0.533 6.0425-1.601 9.0358-5.3385 28.626-23.488 58.766-54.448 1.039-1.068 1.6042-1.3879 1.7048-0.9607 0.0469 0.2136-0.35417 1.2819-1.1989 3.2029-6.9191 13.78-14.434 32.814-10.364 53.167 2.9972 9.4161 9.7576 11.572 18.518 11.077 13.917 0.4699 46.1-30.119 73.796-58.057-4.3436 7.5764-8.5702 15.755-12.565 24.824-1.0501 3.8434-1.3296 6.8324-0.85008 8.9684 5.1194 9.3954 12.054 14.092 20.81 14.092h0.32143c2.3495 0 3.4089-0.9602 3.1884-2.8825 1.5145-12.171 7.7515-23.274 18.719-33.308 0.8227-1.068 1.7684-1.6015 2.8391-1.6015 1.0666 0 2.1744 0.6408 3.314 1.9224 13.738 20.861 29.992 34.466 44.369 41.797 9.5043 4.7584 24.15 10.167 35.454 1.6258 15.131-9.6972 40.204-30.552 43.25-33.65 1.1713-1.2196-0.30179-4.163-0.30179-4.163s-2.7382-4.4054-9.372-3.2024c-19.601 18.172-32.716 26.664-44.014 27.103-8.9517 0.3473-16.763-4.3532-25.754-13.295-12.408-10.462-17.137-18.032-17.521-19.739-0.0483-0.2136 0.01-0.4272 0.17363-0.6408 15.269-2.3481 30.942-9.5014 47.022-21.459 16.297-11.957 23.57-21.779 21.828-29.465-0.58014-2.5631-2.0478-4.8038-4.407-6.7262-4.6922-4.6977-9.3193-7.6867-13.879-8.9669-7.0459 0-15.422 2.1346-25.131 6.4037-9.4947 4.2706-17.992 9.1819-25.486 14.734l-9.9963 9.6077c-0.65871 0.8544-1.3074 1.2815-1.9523 1.2815-0.42718 0-0.75947-0.5329-1.002-1.6009-0.24253-1.068-0.0111-1.9224 0.70125-2.5631 9.8006-15.158 21.685-32.454 35.644-51.885 14.128-19.644 25.163-35.017 33.112-46.12 8.1111-11.316 12.069-17.402 11.875-18.256-1.4359-2.5617-4.9292-3.8431-10.476-3.8431h-3.5264c-2.5645 0-4.6014 0.4272-6.1159 1.2816-0.80201 0.21359-1.8314 0.8542-3.0882 1.9208-1.0873 0.85435-2.147 1.815-3.1874 2.883-1.039 1.068-3.3089 3.31-6.8022 6.7262-34.859 43.131-57.114 78.097-70.313 97.1-9.5305 7.8989-23.785 24.055-36.336 35.586-12.38 11.316-22.461 20.071-30.24 26.262-7.5627 6.1914-14.318 10.782-20.26 13.772-5.7271 2.989-9.8749 4.483-12.434 4.483-8.8029-0.2109 0.12644-20.638 8.4594-34.946 5.9587-10.742 13.358-19.94 20.255-30.745 4.0321-5.7657 5.3414-8.908 8.3814-13.394 0.61186-1.0666 0.72332-2.4543 0.33745-4.1631-1.1768-4.7019-10.903-9.0233-15.774-9.3472-1.921 0-4.1328 1.067-6.6394 3.2029-13.061 13.024-36.71 38.34-57.557 55.635l-1.3875 0.9606c-0.21082 0-0.36396-0.2136-0.46457-0.6407-0.0951-0.4272 0.85438-2.3484 2.8608-5.7646l23.162-43.466c0.72898-1.4938 0.92503-2.9888 0.58601-4.484-0.48507-2.1346-2.9492-4.0558-7.3933-5.7645-4.232-1.7088-7.1989-2.5616-8.909-2.5616-1.6509 0-3.3929 1.4869-5.2188 4.4483-38.484 41.332-68.378 66.676-87.806 75.844-0.49199-4.057 2.0822-18.642 5.2793-25.261 1.9045-3.8433 3.8003-7.2596 5.6854-10.248 1.8355-3.204 4.946-8.3273 9.3281-15.373 4.3808-7.0459 8.1881-13.345 11.413-18.897 2.406-2.5616 3.3722-4.9114 2.8872-7.046-1.3463-5.6541-9.2192-9.0607-14.318-10.889-1.7087 0-3.3886 1.0665-5.0395 3.2024-3.6063-5.5521-7.4621-8.4337-11.567-8.6486-10.677 0-22.355 4.0585-35.037 12.172-9.5815 6.2356-18.202 13.358-25.87 21.358-26.788 25.098-46.155 47.864-71.301 63.236-2.2724 1.2801-3.8352 1.9213-4.6896 1.9213-0.8544 0-1.4013-0.5335-1.6438-1.6015 1.2498-27.481 14.711-49.52 23.541-71.15 2.0285-5.6417-11.423-15.904-17.412-10.065-5.2738 4.057-15.912 12.634-26.331 22.242-10.469 9.3954-16.132 14.093-16.986 14.093l-0.39274-0.3209c-0.14469-0.6408 0.18087-2.0285 0.97875-4.1631 0.96325-2.3495 1.7735-3.951 2.435-4.8054 9.197-18.306 35.967-58.199 70.958-103.87 99.806-6.6862 148.82-4.7236 294.62 3.9 5.9793 0 8.723-4.2433 8.2434-6.3779-92.108-11.29-186.48-18.754-284.03-21.64 2.8195-3.5443 5.6748-7.104 8.5659-10.676 1.1562-1.4952 1.5658-2.9888 1.2268-4.484-0.33902-1.4938-1.8619-2.5616-4.5697-3.2024zm80.561 124.57c0.64078 0 1.0086 0.2136 1.1064 0.6408 0.0482 0.2136-0.25768 0.7471-0.91777 1.6014l-18.219 25.812c-9.3734 10.463-19.494 20.925-30.361 31.389-10.655 10.462-17.263 15.693-19.825 15.693-0.42717 0-0.68904-0.2135-0.78549-0.6408-0.8227-3.6297 6.1405-20.688 13.213-30.937 7.2388-10.464 16.33-20.285 27.274-29.465 10.896-9.3955 20.401-14.093 28.515-14.093zm293.17 6.7262 1.2568 1.2816c0.58014 2.5617-6.7605 9.2865-22.013 20.177-15.304 10.676-25.517 16.014-30.64 16.014-0.64491 0-1.0144-0.2136-1.1095-0.6408-0.14192-0.6408 0.11146-1.3879 0.77567-2.2423l9.6423-8.3276c6.5925-5.7643 14.15-11.53 22.662-17.294 8.7299-5.7658 15.205-8.7549 19.426-8.9685zm-238.12 119.69c-1.9155 0-3.6792 1.1759-5.2818 3.5254l-14.689 18.575c-47.092 54.816-120.93 160.62-181.54 170.07-1.9251 0-2.9366-0.2136-3.0344-0.6408-1.9788-8.7547 10.311-27.544 36.87-56.369 11.17-11.957 22.163-24.234 32.975-36.832 11.028-12.598 19.962-24.982 26.81-37.153 7.5806-14.038 13.552-40.612-2.2474-54.446-23.111-16.417-120.27 37.44-144.93 85.514-2.4805 3.2026-3.482 5.8703-2.99 8.0062 0.1888 0.8544 0.73416 1.3878 1.6381 1.6014h0.95809c2.5687 0 4.5734-1.4936 6.0327-4.4839 10.652-12.384 22.225-23.487 34.731-33.309 12.719-9.8213 24.159-17.294 34.319-22.419 10.364-5.1249 20.31-9.2883 29.833-12.492 9.6945-3.4148 16.891-5.5504 21.609-6.4048 4.717-0.853 7.7156-1.2806 8.9958-1.2806 1.2884 0 2.023 0.4276 2.22 1.2806 0.67111 2.9903-3.0262 9.2893-11.1 18.897l-68.243 76.226c-24.276 31.388-41.355 55.622-37.488 72.704 2.0326 8.9683 6.3831 15.908 13.051 20.818 6.875 4.9113 13.408 7.367 19.602 7.367 25.833 0 60.671-27.65 104.52-82.952l36.135-45.481c2.5246-2.989 4.0017-4.484 4.4302-4.484 0.42171 0 0.0275 1.068-1.1989 3.204-0.60911 1.0666-1.0831 1.8149-1.4139 2.2407-0.11712 0.4272-0.26046 0.7481-0.42168 0.9617-31.454 51.682-57.806 91.182-93.405 141.88h-1.2806c-11.744 0-25.062 4.3763-39.94 13.131-14.886 8.7546-27.121 19.323-36.7 31.708-9.7386 12.598-13.552 23.593-11.422 32.989 1.593 7.0459 4.8607 12.49 9.7844 16.334 4.932 3.8433 8.9958 5.7655 12.2 5.7655 15.164 0 30.442-5.1247 45.839-15.373 15.61-10.248 29.01-22.739 40.19-37.473 53.429-69.875 91.328-165.95 152.6-262.92 0.99356-1.2802 1.2897-2.7755 0.90382-4.4829-0.43822-1.9223-1.5472-3.5233-3.329-4.8049l-11.207-8.0408c-1.0032-0.6408-2.4626-0.9623-4.3863-0.9623zm96.252 48.764c-4.1355-0.091-11.53 4.3989-8.5933 5.6115 66.623-1.0115 215.45 2.0863 150.93 88.592-29.387 32.731-49.268 51.569-73.579 50.608-0.85989 0-1.4053-0.5343-1.6464-1.6009-1.5489-6.8337 12.11-34.716 35.688-63.541 7.8589-9.6077 8.4763-10.969 8.1359-12.464-6.7937-6.2494-16.604-14.596-21.769-3.8695-3.2232 5.5507-11.359 14.412-24.401 26.582-12.836 12.171-24.391 22.42-34.677 30.748-3.8489 2.7754-6.6325 4.1631-8.3426 4.1631-1.7088 0-2.7297-0.7481-3.0701-2.2433-0.34035-1.4938 0.26857-4.4814 1.8175-8.9669 1.7542-4.4828 5.0934-10.035 9.9978-16.654 5.0671-6.8323 9.2563-12.386 12.559-16.655 3.3032-4.2705 4.7074-7.4733 4.2251-9.6092-0.4837-2.1346-1.8798-4.0571-4.1894-5.7645-2.3096-1.7087-4.6371-2.5616-6.9825-2.5616-5.3261 0.1777-12.406 5.8261-21.241 16.936-7.1423 6.6325-13.811 13.264-24.015 19.895-10.947 7.2609-22.055 10.891-28.036 10.891 7.9582-18.577 10.59-33.844 7.8781-45.801-0.92192-4.057-3.4022-7.4731-7.4481-10.248-3.1957-2.7754-5.9338-4.0567-8.2352-3.8431-2.3537 0-4.1538 0.5334-5.4064 1.6014-1.0832 0.853-2.0586 1.28-2.9089 1.28-0.904-0.2136-1.9871-0.747-3.2494-1.6014-1.3064-1.0679-3.025-1.6009-5.1651-1.6009-22.476 9.1817-39.599 23.594-51.379 43.237-11.825 19.432-16.14 36.193-12.944 50.285 1.1093 4.9113 2.8828 8.9683 5.3165 12.171 4.44 6.4052 12.622 10.462 24.536 12.171 17.293 0 34.836-13.986 52.632-41.957 2.6582 0.4272 4.6274 0.6408 5.9076 0.6408 9.1474 0 19.523-4.151 31.123-12.447-2.9366 6.6049-5.2188 13.209-6.8394 19.814-1.655 6.8323-1.9515 12.596-0.88625 17.294 1.7901 7.9003 6.9549 11.852 15.495 11.852 3.2039 0 6.9195-1.4951 11.153-4.4855 4.4497-2.9876 8.2086-6.1915 11.279-9.6077 3.2756-3.4161 7.2776-7.9007 12.003-13.451 4.6729-5.7657 7.5379-8.6486 8.6114-8.6486 1.2802 0 1.9694 0.2136 2.0686 0.6408 0.0896 0.4272 0.0801 0.8543-0.0357 1.2815-0.16122 0.2136-0.30455 0.5335-0.42168 0.9607l-0.52814 1.9208c-1.746 14.333-6.3636 30.476 12.54 35.552 41.901 10.251 119.18-85.17 119.77-119.91 0.70693-42.164-53.975-47.172-177.28-47.172-0.12538-0.012-0.25907-0.019-0.39274-0.023zm-47.201 68.779c0.42993 0 0.81598 0.7485 1.155 2.2423 0.28662 1.2829 5.9531 6.2986 3.2411 15.053-2.497 8.7547-5.5671 15.926-9.1927 15.926-0.64491 0-8.7011-3.7552-10.42-5.6762-1.7184-1.9222-2.6498-3.2037-2.7931-3.8431-0.58152-2.5632 1.6921-7.1536 6.8115-13.772 5.3358-6.6201 9.0687-9.9302 11.198-9.9302zm-35.043 26.264c0.21499 0 2.3634 2.8827 6.4451 8.647 4.243 5.5522 13.723 11.84 16.775 13.975 0.34036 3.4176-2.4354 7.1646-10.438 16.133-8.0119 8.9669-22.306 13.451-29.136 13.451-1.0652 0-1.7999-0.8544-2.1844-2.5632-1.1631-5.1235 0.77016-14.518 5.7821-28.184 3.2852-8.1139 7.5367-15.267 12.755-21.459zm-172.58 95.123c0.42997 0 0.66145 0.1071 0.71521 0.3193 0.0896 0.4285-0.51815 1.4955-1.8438 3.2029l-8.7535 15.053c-6.0068 10.248-14.447 21.994-25.332 35.231-10.66 13.239-20.712 23.06-30.156 29.467l-1.772 0.6393c-0.64491 0-1.0391-0.3199-1.1824-0.9607-1.396-6.1915 4.2526-18.47 16.962-36.832 12.701-18.364 28.16-33.096 46.349-44.199z"/></g></svg>